<?xml version="1.0" encoding="utf-8"?>
<!-- Generator: Adobe Illustrator 28.1.0, SVG Export Plug-In . SVG Version: 6.00 Build 0)  -->
<svg version="1.1" id="Livello_1" xmlns="http://www.w3.org/2000/svg" xmlns:xlink="http://www.w3.org/1999/xlink" x="0px" y="0px"
	 viewBox="0 0 12 16" style="enable-background:new 0 0 12 16;" xml:space="preserve">
<style type="text/css">
	.st0{fill:#FFFFFF;}
</style>
<path class="st0" d="M10.7,4.7c0.4-0.4,0.4-1,0-1.4s-1-0.4-1.4,0L6,6.6L2.7,3.3c-0.4-0.4-1-0.4-1.4,0s-0.4,1,0,1.4L4.6,8l-3.3,3.3
	c-0.4,0.4-0.4,1,0,1.4s1,0.4,1.4,0L6,9.4l3.3,3.3c0.4,0.4,1,0.4,1.4,0s0.4-1,0-1.4L7.4,8L10.7,4.7z"/>
</svg>
